P3
# Created by GIMP version 2.10.22 PNM plug-in
63 80
255
0
2
0
0
2
0
0
2
0
0
2
0
0
2
0
0
2
0
0
2
0
0
2
0
0
2
0
0
2
0
0
2
0
0
2
0
0
2
0
0
2
0
0
2
0
0
2
0
0
2
0
0
2
0
0
2
0
0
2
0
0
2
0
0
2
0
0
2
0
0
2
0
0
2
0
0
2
0
0
2
0
0
2
0
0
2
0
0
2
0
0
2
0
0
2
0
0
2
0
0
2
0
0
2
0
0
2
0
0
2
0
0
2
0
0
2
0
0
2
0
0
2
0
0
2
0
0
2
0
0
2
0
0
2
0
0
2
0
0
2
0
0
2
0
0
2
0
0
2
0
0
2
0
0
2
0
0
2
0
0
2
0
0
2
0
0
2
0
0
2
0
0
2
0
0
2
0
0
2
0
0
2
0
0
2
0
0
2
0
0
2
0
0
2
0
0
2
0
0
2
0
0
2
0
0
2
0
0
2
0
0
2
0
0
2
0
0
2
0
0
2
0
0
2
0
0
2
0
0
2
0
0
2
0
0
2
0
0
2
0
0
2
0
0
2
0
0
2
0
0
2
0
0
2
0
0
2
0
0
2
0
0
2
0
0
2
0
0
2
0
0
2
0
0
2
0
0
2
0
0
2
0
0
2
0
0
2
0
0
2
0
0
2
0
0
2
0
0
2
0
0
2
0
0
2
0
0
2
0
0
2
0
0
2
0
0
2
0
0
2
0
0
2
0
0
2
0
0
2
0
0
2
0
0
2
0
0
2
0
0
2
0
0
2
0
0
2
0
0
2
0
0
2
0
0
2
0
0
2
0
0
2
0
0
2
0
0
2
0
0
2
0
0
2
0
0
2
0
0
2
0
0
2
0
0
2
0
0
2
0
0
2
0
0
2
0
0
2
0
0
2
0
0
2
0
0
2
0
0
2
0
0
2
0
0
2
0
0
2
0
0
2
0
0
2
0
0
2
0
0
2
0
0
2
0
0
2
0
0
2
0
0
2
0
0
2
0
0
2
0
0
2
0
0
2
0
0
2
0
0
2
0
0
2
0
0
2
0
0
2
0
0
2
0
0
2
0
0
2
0
0
2
0
0
2
0
0
2
0
0
2
0
0
2
0
0
2
0
0
2
0
0
2
0
0
2
0
0
2
0
0
2
0
0
2
0
0
2
0
0
2
0
0
2
0
0
2
0
0
2
0
0
2
0
0
2
0
0
2
0
0
2
0
0
2
0
0
2
0
0
2
0
0
2
0
0
2
0
0
2
0
0
2
0
0
2
0
0
2
0
0
2
0
0
2
0
0
2
0
0
2
0
0
2
0
0
2
0
0
2
0
0
2
0
0
2
0
0
2
0
0
2
0
0
2
0
0
2
0
0
2
0
0
2
0
0
2
0
0
2
0
0
2
0
0
2
0
0
2
0
0
2
0
0
2
0
0
2
0
0
2
0
0
2
0
0
2
0
0
2
0
0
2
0
0
2
0
0
2
0
0
2
0
0
2
0
0
2
0
0
2
0
0
2
0
0
2
0
0
2
0
0
2
0
0
2
0
0
2
0
0
2
0
0
2
0
0
2
0
0
2
0
0
2
0
0
2
0
0
2
0
0
2
0
0
2
0
0
2
0
0
2
0
0
2
0
0
2
0
0
2
0
0
2
0
0
2
0
0
2
0
0
2
0
0
2
0
0
2
0
0
2
0
0
2
0
0
2
0
0
2
0
0
2
0
0
2
0
0
2
0
0
2
0
0
2
0
0
2
0
0
2
0
0
2
0
0
2
0
0
2
0
0
2
0
0
2
0
0
2
0
0
2
0
0
2
0
0
2
0
0
2
0
0
2
0
0
2
0
0
2
0
0
2
0
0
2
0
0
2
0
0
2
0
0
2
0
0
2
0
0
2
0
0
2
0
0
2
0
0
2
0
0
2
0
0
2
0
0
2
0
0
2
0
0
2
0
0
2
0
0
2
0
0
2
0
0
2
0
0
2
0
0
2
0
0
2
0
0
2
0
0
2
0
0
2
0
0
2
0
0
2
0
0
2
0
0
2
0
0
2
0
0
2
0
0
2
0
0
2
0
0
2
0
0
2
0
0
2
0
0
2
0
0
2
0
0
2
0
0
2
0
0
2
0
0
2
0
0
2
0
0
2
0
0
2
0
0
2
0
0
2
0
0
2
0
0
2
0
0
2
0
0
2
0
0
2
0
0
2
0
0
2
0
0
2
0
0
2
0
0
2
0
0
2
0
0
2
0
0
2
0
0
2
0
0
2
0
0
2
0
0
2
0
0
2
0
0
2
0
0
2
0
0
2
0
0
2
0
0
2
0
0
2
0
0
2
0
0
2
0
0
2
0
0
2
0
0
2
0
0
2
0
0
12
5
20
40
13
3
20
6
17
44
17
6
15
1
0
2
0
0
2
0
0
2
0
0
2
0
0
2
0
0
2
0
0
2
0
0
2
0
0
2
0
0
2
0
0
2
0
0
2
0
0
2
0
0
2
0
0
2
0
0
2
0
0
2
0
0
2
0
0
2
0
0
2
0
0
2
0
0
2
0
0
2
0
0
2
0
0
2
0
0
2
0
0
2
0
0
2
0
0
2
0
0
2
0
0
2
0
0
2
0
0
2
0
0
2
0
0
2
0
0
2
0
0
2
0
0
2
0
0
2
0
0
2
0
0
2
0
0
2
0
0
2
0
0
2
0
0
2
0
0
2
0
0
2
0
0
2
0
0
2
0
0
2
0
0
2
0
0
2
0
0
2
0
0
2
0
0
2
0
0
2
0
0
2
0
0
2
0
21
47
20
53
191
92
53
191
92
53
191
92
30
62
27
23
48
15
4
7
2
0
2
0
4
0
6
7
0
0
0
2
0
4
0
6
0
2
0
0
2
0
0
2
0
0
2
0
0
2
0
0
2
0
0
2
0
0
2
0
0
2
0
0
2
0
0
2
0
0
2
0
0
2
0
0
2
0
0
2
0
0
2
0
0
2
0
0
2
0
0
2
0
0
2
0
0
2
0
0
2
0
0
2
0
0
2
0
0
2
0
0
2
0
0
2
0
0
2
0
0
2
0
0
2
0
0
2
0
0
2
0
0
2
0
0
2
0
0
2
0
0
2
0
0
2
0
0
2
0
0
2
0
0
2
0
0
2
0
0
2
0
0
2
0
0
2
0
0
2
0
0
2
0
0
2
0
0
2
0
0
2
0
0
2
0
4
0
6
0
2
0
53
191
92
236
239
235
53
191
92
53
183
88
53
173
83
19
46
18
0
2
0
4
0
6
4
0
6
0
2
0
0
2
0
0
2
0
0
2
0
0
2
0
0
2
0
0
2
0
0
2
0
0
2
0
0
2
0
0
2
0
0
2
0
0
2
0
0
2
0
0
2
0
0
2
0
0
2
0
0
2
0
0
2
0
0
2
0
0
2
0
0
2
0
0
2
0
0
2
0
0
2
0
0
2
0
0
2
0
0
2
0
0
2
0
0
2
0
0
2
0
0
2
0
0
2
0
0
2
0
0
2
0
0
2
0
0
2
0
0
2
0
0
2
0
0
2
0
0
2
0
0
2
0
0
2
0
0
2
0
0
2
0
0
2
0
0
2
0
0
2
0
0
2
0
0
2
0
0
2
0
0
2
0
0
2
0
21
47
20
53
191
92
53
191
92
53
191
92
30
62
27
25
50
17
53
191
92
25
50
17
0
2
0
0
4
7
0
2
0
0
2
0
0
2
0
0
2
0
0
2
0
0
2
0
0
2
0
0
2
0
0
2
0
0
2
0
0
2
0
0
2
0
0
2
0
0
2
0
0
2
0
0
2
0
0
2
0
0
2
0
0
2
0
0
2
0
0
2
0
0
2
0
0
2
0
0
2
0
0
2
0
0
2
0
0
2
0
0
2
0
0
2
0
0
2
0
0
2
0
0
2
0
0
2
0
0
2
0
0
2
0
0
2
0
0
2
0
0
2
0
0
2
0
0
2
0
0
2
0
0
2
0
0
2
0
0
2
0
0
2
0
0
2
0
0
2
0
0
2
0
0
2
0
0
2
0
0
2
0
0
2
0
0
2
0
0
2
0
23
49
22
0
2
0
21
47
20
6
15
1
6
15
1
25
50
17
53
191
92
19
46
18
0
2
0
7
0
0
0
2
0
0
2
0
0
2
0
0
2
0
0
2
0
0
2
0
0
2
0
0
2
0
0
2
0
0
2
0
0
2
0
0
2
0
0
2
0
0
2
0
0
2
0
0
2
0
0
2
0
0
2
0
0
2
0
0
2
0
0
2
0
0
2
0
0
2
0
0
2
0
0
2
0
0
2
0
0
2
0
0
2
0
0
2
0
0
2
0
0
2
0
0
2
0
0
2
0
0
2
0
0
2
0
0
2
0
0
2
0
0
2
0
0
2
0
0
2
0
0
2
0
0
2
0
0
2
0
4
7
2
14
28
4
0
12
5
0
2
0
0
2
0
0
2
0
0
2
0
0
2
0
0
2
0
0
2
0
4
7
2
0
2
0
0
12
5
19
38
11
4
7
2
0
2
0
53
191
92
6
15
1
0
2
0
0
2
0
0
2
0
0
2
0
0
2
0
0
2
0
0
2
0
0
2
0
0
2
0
0
2
0
0
2
0
0
2
0
0
2
0
0
2
0
0
2
0
0
2
0
0
2
0
0
2
0
0
2
0
0
2
0
0
2
0
0
2
0
0
2
0
0
2
0
0
2
0
0
2
0
0
2
0
0
2
0
0
2
0
0
2
0
0
2
0
0
2
0
0
2
0
0
2
0
0
2
0
0
2
0
0
2
0
0
2
0
0
2
0
0
2
0
0
2
0
0
2
0
0
2
0
0
2
0
0
2
0
14
35
13
53
191
92
53
191
92
53
191
92
53
191
92
53
191
92
53
191
92
53
191
92
53
191
92
53
191
92
53
191
92
53
191
92
53
191
92
53
191
92
19
46
18
24
51
23
53
191
92
0
2
0
0
2
0
0
2
0
0
2
0
0
2
0
0
2
0
0
2
0
0
2
0
0
2
0
0
2
0
0
2
0
0
2
0
0
2
0
0
2
0
0
2
0
0
2
0
0
2
0
0
2
0
0
2
0
0
2
0
0
2
0
0
2
0
0
2
0
0
2
0
0
2
0
0
2
0
0
2
0
0
2
0
0
2
0
0
2
0
0
2
0
0
2
0
0
2
0
0
2
0
0
2
0
0
2
0
0
2
0
0
2
0
0
2
0
0
2
0
0
2
0
7
0
0
0
2
0
0
2
0
4
7
2
20
40
13
53
191
92
17
44
17
0
2
0
0
2
0
0
2
0
0
2
0
0
2
0
0
2
0
0
2
0
0
2
0
0
2
0
0
2
0
3
13
0
20
40
13
53
191
92
53
191
92
53
191
92
6
15
1
0
2
0
0
2
0
0
4
7
0
4
7
0
2
0
0
2
0
0
2
0
0
2
0
0
2
0
0
2
0
0
2
0
0
2
0
0
2
0
0
2
0
0
2
0
0
2
0
0
2
0
0
2
0
0
2
0
0
2
0
0
2
0
0
2
0
0
2
0
0
2
0
0
2
0
0
2
0
0
2
0
0
2
0
0
2
0
0
2
0
0
2
0
0
2
0
0
2
0
0
2
0
0
2
0
0
2
0
0
2
0
0
2
0
0
2
0
0
2
0
0
4
7
0
2
0
4
7
2
14
35
13
53
191
92
21
42
21
6
15
1
0
2
0
0
2
0
0
2
0
0
2
0
7
0
0
0
2
0
0
2
0
0
2
0
0
2
0
0
2
0
0
2
0
0
12
5
0
2
0
29
54
21
53
191
92
22
54
20
4
7
2
4
0
6
7
0
0
0
2
0
0
2
0
0
2
0
0
4
7
0
2
0
0
2
0
0
2
0
0
2
0
0
2
0
0
2
0
0
2
0
0
2
0
0
2
0
0
2
0
0
2
0
0
2
0
0
2
0
0
2
0
0
2
0
0
2
0
0
2
0
0
2
0
0
2
0
0
2
0
0
2
0
0
2
0
0
2
0
0
2
0
0
2
0
0
2
0
0
2
0
0
2
0
0
2
0
0
2
0
0
2
0
0
2
0
0
2
0
0
2
0
0
4
7
18
39
18
53
191
92
28
43
23
21
26
18
46
48
45
0
2
0
46
48
45
9
12
8
0
2
0
0
2
0
0
2
0
0
2
0
0
2
0
0
2
0
0
2
0
0
2
0
0
2
0
0
2
0
0
2
0
19
38
11
53
191
92
17
44
17
3
13
0
4
0
6
0
2
0
0
2
0
0
2
0
0
2
0
4
0
6
0
2
0
0
2
0
0
2
0
0
2
0
0
2
0
0
2
0
0
2
0
0
2
0
0
2
0
0
2
0
4
0
6
0
2
0
0
2
0
0
2
0
0
2
0
0
2
0
0
2
0
0
2
0
0
2
0
0
2
0
0
2
0
0
2
0
0
2
0
0
2
0
0
2
0
0
2
0
7
0
0
0
2
0
0
2
0
0
2
0
0
2
0
0
2
0
4
7
2
13
33
11
53
191
92
51
57
48
63
65
63
72
74
72
236
239
235
240
242
239
236
239
235
74
76
73
53
55
52
0
2
0
0
2
0
0
2
0
21
23
20
53
55
52
50
51
49
41
43
40
9
12
8
0
2
0
0
2
0
0
2
0
16
42
15
53
191
92
14
41
13
0
2
0
0
2
0
0
2
0
0
2
0
0
2
0
0
2
0
0
2
0
0
2
0
0
2
0
0
2
0
0
2
0
0
2
0
0
2
0
0
2
0
0
2
0
0
2
0
0
2
0
0
2
0
0
2
0
0
2
0
0
2
0
0
2
0
0
2
0
0
2
0
0
2
0
0
2
0
0
2
0
0
2
0
0
2
0
0
2
0
0
2
0
0
2
0
0
2
0
7
0
0
0
2
0
0
2
0
0
2
0
4
7
2
16
36
15
53
191
92
51
57
48
70
72
69
239
241
238
240
242
239
241
243
240
241
243
240
241
243
240
241
243
240
236
239
235
63
65
63
0
2
0
4
7
2
57
59
57
240
242
239
241
243
240
239
241
238
55
57
54
0
2
0
0
2
0
0
2
0
0
2
0
16
42
15
53
191
92
16
42
15
4
7
2
0
4
7
0
2
0
0
2
0
0
4
7
0
2
0
0
2
0
0
2
0
0
2
0
0
2
0
0
2
0
0
2
0
0
2
0
0
2
0
0
2
0
0
2
0
0
2
0
0
2
0
0
2
0
0
2
0
0
2
0
0
2
0
0
2
0
0
2
0
0
2
0
0
2
0
0
2
0
0
2
0
0
2
0
0
2
0
0
2
0
0
2
0
0
2
0
7
0
0
7
0
0
4
7
2
20
34
13
53
191
92
56
62
53
66
68
65
241
243
240
242
242
252
242
242
252
241
243
240
241
243
240
241
243
240
240
242
239
241
243
240
241
243
240
63
65
63
46
48
45
241
243
240
241
243
240
241
243
240
241
243
240
239
241
238
63
65
63
0
2
0
0
2
0
0
2
0
0
2
0
21
47
20
53
191
92
14
41
13
0
4
7
4
0
6
7
0
0
7
0
0
0
2
0
0
2
0
0
2
0
0
2
0
0
2
0
0
2
0
0
2
0
0
2
0
0
2
0
0
2
0
0
2
0
0
2
0
0
2
0
0
2
0
0
2
0
0
2
0
0
2
0
0
2
0
0
2
0
9
27
9
0
2
0
0
2
0
16
36
15
0
2
0
0
2
0
0
2
0
0
4
7
0
2
0
0
2
0
4
7
2
21
42
21
53
191
92
53
59
50
80
82
79
247
236
243
241
238
243
241
238
243
244
247
243
241
243
240
241
243
240
241
243
240
242
244
241
241
243
240
241
243
240
66
68
65
241
243
240
241
243
240
241
243
240
241
243
240
242
244
241
241
243
240
239
241
238
59
61
58
12
15
11
0
2
0
0
2
0
0
2
0
14
41
13
53
191
92
18
36
8
0
4
7
7
0
0
7
0
0
0
2
0
0
2
0
0
2
0
0
2
0
0
2
0
0
2
0
0
2
0
0
2
0
0
2
0
0
2
0
0
2
0
0
2
0
0
2
0
0
2
0
0
2
0
0
2
0
4
7
2
0
2
0
14
35
13
53
191
92
53
191
92
53
191
92
53
191
92
17
38
17
0
2
0
0
2
0
0
2
0
0
2
0
2
14
8
14
35
13
53
191
92
49
55
47
59
61
58
239
241
238
242
244
241
240
242
239
241
243
240
241
243
240
241
238
243
241
243
240
241
243
240
241
243
240
240
242
239
91
93
90
241
243
240
241
243
240
242
244
241
241
243
240
241
243
240
241
243
240
242
244
241
241
243
240
236
239
235
57
59
57
12
15
11
0
2
0
0
2
0
0
2
0
16
42
15
53
191
92
14
41
13
4
7
2
0
2
0
0
2
0
0
2
0
0
2
0
0
2
0
0
2
0
0
2
0
0
2
0
0
2
0
0
2
0
0
2
0
0
2
0
0
2
0
0
2
0
0
2
0
0
2
0
0
12
5
18
36
8
21
47
20
53
191
92
34
40
32
17
19
16
62
68
59
41
47
38
53
191
92
17
38
17
4
7
2
0
2
0
0
2
0
18
39
18
53
191
92
49
55
47
70
72
69
239
241
238
241
243
240
244
244
235
241
243
240
241
243
240
241
238
243
248
245
250
241
243
240
241
243
240
240
242
239
82
84
81
240
242
239
241
243
240
241
243
240
241
243
240
241
243
240
241
243
240
241
243
240
241
243
240
241
243
240
241
243
240
242
244
241
46
48
45
0
2
0
0
2
0
0
2
0
0
2
0
21
47
20
53
191
92
16
42
15
4
0
6
0
2
0
0
2
0
0
2
0
0
2
0
0
2
0
0
2
0
0
2
0
0
2
0
0
2
0
0
2
0
0
2
0
0
4
7
7
0
0
0
2
0
0
12
5
17
38
17
53
191
92
53
191
92
38
44
36
68
70
67
240
242
239
239
241
238
63
65
63
43
49
41
53
191
92
14
35
13
0
2
0
24
43
17
53
191
92
53
59
50
74
76
73
239
241
238
241
243
240
242
242
252
248
245
250
241
238
243
248
245
250
241
243
240
240
242
239
241
243
240
240
242
239
91
93
90
241
243
240
241
243
240
241
243
240
241
243
240
240
242
239
241
243
240
242
244
241
241
243
240
241
243
240
241
243
240
241
243
240
240
242
239
67
69
66
12
15
11
0
2
0
0
2
0
0
2
0
21
47
20
53
191
92
21
47
20
0
2
0
7
0
0
0
4
7
0
2
0
0
2
0
0
2
0
0
2
0
0
2
0
0
2
0
0
2
0
0
2
0
0
2
0
0
2
0
8
1
0
4
7
2
14
35
13
53
191
92
36
42
33
45
53
49
55
57
54
241
243
240
241
243
240
241
243
240
241
243
240
46
48
45
59
65
56
53
191
92
28
54
26
53
191
92
51
57
48
63
65
63
236
239
235
241
243
240
241
243
240
234
246
247
246
240
239
241
243
240
241
243
240
236
241
244
236
241
244
240
242
239
91
93
90
241
243
240
241
243
240
241
243
240
241
243
240
240
242
239
241
243
240
241
243
240
241
243
240
241
243
240
241
243
240
241
243
240
241
243
240
241
243
240
236
239
235
55
57
54
0
2
0
0
2
0
0
2
0
4
7
2
25
50
17
53
191
92
16
42
15
0
2
0
0
2
0
0
2
0
0
2
0
0
2
0
0
2
0
0
2
0
0
2
0
0
2
0
0
2
0
0
2
0
4
0
6
0
12
5
17
38
17
53
191
92
49
55
47
66
68
65
241
243
240
241
243
240
241
243
240
241
243
240
241
243
240
241
243
240
241
243
240
20
27
24
24
45
24
53
191
92
56
62
53
74
76
73
239
241
238
241
243
240
242
244
241
254
238
253
241
243
240
246
240
239
241
243
240
244
247
243
236
241
244
239
241
238
82
84
81
241
243
240
241
243
240
241
243
240
241
243
240
241
243
240
241
243
240
241
243
240
241
243
240
242
244
241
241
243
240
241
243
240
241
243
240
241
243
240
241
243
240
241
243
240
65
67
64
0
2
0
0
2
0
0
2
0
0
2
0
0
2
0
53
191
92
0
12
5
0
2
0
0
2
0
0
2
0
4
0
6
0
2
0
0
2
0
0
2
0
0
2
0
0
2
0
0
2
0
0
2
0
4
0
6
16
36
15
53
191
92
41
47
38
59
61
58
241
243
240
241
243
240
241
243
240
241
243
240
241
243
240
240
242
239
241
243
240
232
234
231
69
78
73
53
191
92
62
68
59
59
61
58
239
241
238
241
243
240
241
243
240
241
243
240
248
245
250
249
236
237
246
240
239
244
247
243
241
243
240
241
238
243
86
88
85
240
242
239
241
243
240
240
242
239
241
243
240
241
243
240
241
243
240
241
243
240
240
242
239
241
243
240
241
243
240
241
243
240
241
243
240
241
243
240
241
243
240
241
243
240
241
243
240
239
241
238
46
48
45
0
2
0
0
2
0
0
2
0
0
2
0
53
191
92
0
2
0
0
2
0
0
2
0
0
2
0
0
2
0
0
2
0
0
2
0
0
2
0
0
2
0
0
2
0
0
2
0
0
2
0
0
2
0
0
2
0
53
191
92
0
2
0
241
243
240
240
242
239
241
243
240
241
243
240
241
243
240
241
243
240
240
242
239
240
242
239
68
70
67
53
191
92
57
70
59
66
68
65
236
239
235
241
243
240
241
243
240
241
243
240
221
223
220
232
234
231
211
216
218
232
234
231
239
241
238
244
247
243
253
242
249
241
243
240
241
243
240
241
243
240
241
243
240
241
243
240
241
243
240
240
242
239
241
243
240
241
243
240
241
243
240
241
243
240
241
243
240
241
243
240
240
242
239
240
242
239
241
243
240
241
243
240
241
243
240
0
2
0
0
2
0
4
0
6
0
2
0
25
50
17
53
191
92
17
44
17
0
2
0
0
2
0
0
2
0
0
2
0
0
2
0
0
2
0
0
2
0
0
2
0
0
2
0
0
2
0
0
2
0
0
2
0
0
2
0
53
191
92
0
2
0
241
243
240
241
243
240
241
243
240
241
243
240
241
243
240
241
243
240
241
243
240
240
242
239
0
2
0
53
191
92
62
68
59
242
244
241
241
243
240
241
243
240
240
242
239
241
243
240
227
221
220
85
80
79
162
159
163
157
160
157
197
199
196
241
243
240
206
203
207
241
243
240
241
243
240
241
243
240
241
243
240
241
243
240
241
243
240
241
243
240
241
243
240
242
244
241
241
243
240
240
242
239
241
243
240
240
242
239
241
243
240
241
243
240
241
243
240
242
244
241
236
239
235
46
48
45
0
2
0
4
0
6
16
42
15
53
191
92
25
50
17
0
12
5
0
2
0
0
2
0
0
2
0
0
2
0
0
2
0
0
2
0
0
2
0
0
2
0
0
2
0
0
2
0
0
2
0
0
2
0
0
2
0
53
191
92
56
62
53
241
243
240
240
242
239
241
243
240
241
243
240
241
243
240
242
244
241
241
243
240
240
242
239
0
2
0
53
191
92
45
53
49
241
243
240
241
243
240
241
243
240
241
243
240
241
243
240
146
144
148
1
59
43
11
7
13
4
7
2
91
93
90
241
243
240
162
159
163
201
198
203
241
243
240
241
243
240
241
243
240
240
242
239
205
208
204
205
208
204
241
243
240
241
243
240
241
243
240
241
243
240
241
243
240
241
243
240
241
243
240
241
243
240
241
243
240
240
242
239
66
68
65
0
2
0
0
2
0
0
12
5
29
54
21
53
191
92
16
36
15
0
2
0
7
0
0
0
2
0
0
2
0
7
0
0
0
2
0
0
2
0
0
2
0
0
2
0
0
2
0
0
2
0
0
2
0
0
2
0
14
35
13
53
191
92
41
47
38
74
76
73
241
243
240
241
243
240
241
243
240
241
243
240
241
243
240
240
242
239
240
242
239
59
61
58
53
191
92
42
54
44
77
79
76
241
243
240
241
243
240
241
243
240
241
243
240
146
144
148
14
106
85
17
44
47
14
17
13
91
93
90
241
243
240
84
81
85
241
243
240
241
243
240
241
243
240
241
243
240
92
110
110
121
125
128
202
207
209
144
144
154
227
221
220
242
244
241
241
243
240
241
243
240
241
243
240
240
242
239
241
243
240
242
244
241
239
241
238
53
55
52
0
2
0
0
2
0
3
13
0
53
191
92
23
48
15
0
2
0
0
2
0
0
2
0
0
2
0
0
2
0
0
4
7
0
2
0
0
2
0
0
2
0
0
2
0
0
2
0
0
2
0
0
2
0
4
0
6
0
2
0
14
35
13
53
191
92
41
47
38
77
79
76
241
243
240
240
242
239
241
243
240
240
242
239
241
243
240
240
242
239
4
7
2
24
45
24
53
191
92
56
62
53
59
61
58
236
239
235
241
243
240
241
243
240
224
222
226
79
104
102
7
88
80
74
82
78
205
208
204
205
208
204
139
143
146
241
243
240
240
242
239
241
243
240
157
160
157
17
33
33
4
7
2
84
81
85
31
29
32
144
144
154
241
243
240
241
243
240
241
243
240
241
243
240
241
243
240
241
243
240
241
243
240
57
59
57
0
2
0
0
2
0
4
7
2
17
44
17
53
191
92
14
41
13
0
2
0
0
2
0
0
2
0
0
2
0
0
2
0
0
2
0
0
2
0
0
2
0
0
2
0
0
2
0
0
2
0
0
2
0
0
2
0
0
2
0
0
2
0
0
2
0
17
38
17
53
191
92
43
49
41
82
84
81
240
242
239
240
242
239
241
243
240
241
243
240
241
243
240
82
84
81
10
24
13
17
44
17
53
191
92
46
58
48
53
55
52
240
242
239
241
243
240
241
243
240
241
243
240
193
190
194
193
190
194
199
199
190
133
145
146
187
189
186
241
243
240
241
243
240
240
242
239
130
128
132
7
88
80
4
10
13
13
0
8
4
0
6
118
127
122
241
243
240
240
242
239
241
243
240
241
243
240
241
243
240
241
243
240
63
65
63
0
2
0
0
2
0
4
7
2
14
35
13
53
191
92
13
39
11
4
7
2
0
2
0
0
2
0
0
2
0
0
2
0
4
0
6
7
0
0
0
2
0
0
2
0
0
2
0
0
2
0
0
2
0
0
2
0
0
2
0
0
2
0
0
2
0
0
2
0
0
2
0
21
47
20
53
191
92
50
51
49
236
239
235
240
242
239
240
242
239
242
244
241
241
243
240
241
243
240
28
30
28
21
47
20
53
191
92
29
49
23
4
7
2
241
243
240
241
243
240
241
243
240
155
146
134
179
72
12
202
98
36
201
137
100
203
125
82
158
70
56
155
130
135
215
227
228
241
243
240
180
188
177
7
88
80
3
107
91
1
59
43
17
33
33
176
179
175
241
243
240
241
243
240
241
243
240
240
242
239
236
239
235
65
67
64
12
15
11
0
2
0
0
2
0
13
39
11
53
191
92
13
33
11
4
7
2
0
2
0
0
2
0
0
2
0
0
2
0
0
2
0
0
2
0
0
2
0
0
2
0
0
4
7
0
4
7
0
2
0
0
2
0
0
2
0
0
2
0
0
2
0
0
2
0
0
2
0
0
2
0
0
2
0
53
191
92
37
49
39
68
70
67
239
241
238
241
243
240
241
243
240
241
243
240
240
242
239
65
67
64
2
14
8
14
30
14
53
191
92
59
61
58
241
243
240
241
243
240
241
243
240
217
214
218
153
116
101
189
80
0
216
97
49
227
135
102
212
86
5
212
86
5
126
72
55
206
207
197
241
243
240
178
175
179
79
104
102
79
104
102
176
179
175
241
243
240
241
243
240
241
243
240
242
244
241
241
243
240
55
57
54
12
15
11
0
2
0
0
2
0
14
35
13
53
191
92
14
41
13
4
7
2
0
2
0
0
2
0
0
2
0
0
2
0
0
2
0
0
2
0
0
4
7
0
2
0
0
2
0
0
4
7
0
2
0
0
2
0
0
2
0
0
4
7
0
2
0
0
2
0
0
4
7
0
2
0
0
2
0
4
7
2
14
35
13
53
191
92
34
40
32
74
76
73
241
243
240
241
243
240
236
239
235
241
243
240
246
240
239
67
69
66
0
2
0
91
93
90
55
57
54
241
243
240
241
243
240
241
243
240
241
243
240
241
243
240
187
189
186
153
116
101
179
72
12
189
80
0
179
72
12
120
60
30
144
144
154
241
243
240
241
243
240
241
243
240
241
243
240
241
243
240
241
243
240
241
243
240
241
243
240
239
241
238
57
59
57
0
2
0
0
2
0
0
2
0
19
38
11
53
191
92
13
39
11
0
2
0
0
2
0
0
2
0
7
0
0
0
2
0
0
2
0
0
4
7
0
2
0
0
2
0
0
2
0
7
0
0
0
2
0
0
2
0
0
2
0
0
2
0
0
2
0
0
2
0
0
2
0
0
2
0
0
2
0
0
4
7
0
2
0
0
2
0
14
35
13
53
191
92
36
42
33
68
70
67
239
241
238
241
243
240
241
243
240
241
243
240
240
242
239
241
243
240
241
243
240
241
243
240
241
243
240
242
244
241
241
243
240
241
243
240
241
243
240
241
243
240
241
243
240
211
216
218
187
189
186
178
175
179
187
189
186
226
226
217
241
243
240
241
243
240
241
243
240
241
243
240
242
244
241
241
243
240
241
243
240
241
243
240
65
67
64
9
12
8
0
2
0
4
7
2
14
41
13
53
191
92
14
35
13
0
12
5
0
2
0
0
2
0
0
2
0
0
2
0
0
2
0
0
2
0
0
2
0
0
2
0
0
2
0
0
2
0
0
2
0
0
2
0
0
2
0
0
2
0
0
4
7
0
2
0
0
2
0
0
2
0
0
4
7
0
2
0
0
2
0
0
4
7
0
2
0
4
7
2
17
38
17
53
191
92
49
55
47
63
65
63
241
243
240
241
243
240
241
243
240
241
243
240
241
243
240
241
243
240
241
243
240
241
243
240
241
243
240
241
243
240
241
243
240
241
243
240
241
243
240
241
243
240
241
243
240
241
243
240
241
243
240
241
243
240
241
243
240
241
243
240
240
242
239
241
243
240
241
243
240
241
243
240
241
243
240
239
241
238
57
59
57
0
2
0
0
2
0
0
12
5
13
39
11
53
191
92
14
35
13
4
7
2
0
2
0
0
2
0
0
2
0
0
2
0
0
2
0
0
2
0
4
7
2
14
41
13
0
2
0
4
7
2
11
37
8
4
7
2
0
2
0
0
2
0
0
2
0
0
2
0
0
2
0
0
2
0
0
2
0
0
2
0
0
2
0
0
2
0
0
2
0
0
2
0
0
2
0
6
15
1
20
34
13
53
191
92
46
52
43
57
59
57
77
79
76
236
239
235
241
243
240
241
243
240
241
243
240
241
243
240
241
243
240
241
243
240
241
243
240
241
243
240
240
242
239
242
244
241
241
243
240
241
243
240
241
243
240
241
243
240
241
243
240
241
243
240
241
243
240
241
243
240
241
243
240
241
243
240
241
243
240
241
243
240
63
65
63
9
12
8
0
2
0
0
2
0
11
37
8
53
191
92
14
35
13
0
12
5
0
2
0
0
2
0
0
2
0
0
2
0
0
2
0
0
2
0
0
2
0
24
43
17
53
191
92
53
191
92
53
191
92
53
191
92
28
54
26
17
44
17
0
2
0
0
2
0
0
2
0
0
2
0
0
2
0
7
0
0
0
2
0
0
2
0
0
2
0
0
2
0
0
2
0
0
2
0
0
2
0
0
2
0
14
35
13
53
191
92
53
191
92
42
54
44
59
68
63
80
82
79
241
243
240
241
243
240
241
243
240
241
243
240
240
242
239
241
243
240
240
242
239
241
243
240
241
243
240
241
243
240
241
243
240
241
243
240
241
243
240
241
243
240
241
243
240
241
243
240
241
243
240
241
243
240
241
243
240
240
242
239
44
46
44
0
2
0
0
2
0
0
2
0
14
41
13
53
191
92
16
36
15
0
12
5
0
2
0
0
2
0
0
2
0
0
2
0
0
2
0
0
2
0
4
7
2
24
44
18
53
191
92
51
64
53
20
27
24
32
34
32
49
55
47
53
191
92
53
191
92
16
42
15
4
7
2
0
2
0
0
2
0
0
2
0
0
2
0
0
2
0
0
2
0
0
2
0
0
2
0
0
2
0
0
2
0
0
2
0
0
2
0
0
2
0
14
41
13
23
49
22
53
191
92
53
191
92
66
68
65
241
243
240
241
243
240
241
243
240
241
243
240
241
243
240
241
243
240
241
243
240
241
243
240
241
243
240
241
243
240
241
243
240
241
243
240
241
243
240
241
243
240
241
243
240
241
243
240
242
244
241
241
243
240
241
243
240
74
76
73
0
2
0
0
2
0
0
2
0
14
41
13
53
191
92
17
44
17
0
2
0
0
2
0
0
2
0
0
2
0
0
4
7
0
2
0
0
2
0
0
2
0
19
46
18
53
191
92
54
66
56
72
74
72
241
243
240
240
242
239
59
61
58
53
59
50
36
42
33
53
191
92
21
42
21
4
7
2
0
4
7
0
2
0
0
2
0
0
2
0
0
2
0
0
2
0
0
2
0
0
2
0
0
2
0
0
2
0
4
0
6
0
2
0
0
2
0
0
2
0
53
191
92
46
58
48
68
70
67
241
243
240
241
243
240
241
243
240
241
243
240
241
243
240
241
243
240
241
243
240
241
243
240
241
243
240
241
243
240
240
242
239
241
243
240
241
243
240
241
243
240
241
243
240
240
242
239
241
243
240
241
243
240
241
243
240
236
239
235
59
61
58
12
15
11
0
2
0
18
36
8
53
191
92
22
54
20
0
2
0
0
2
0
0
2
0
0
2
0
0
2
0
0
2
0
4
7
2
17
44
17
30
62
27
53
191
92
63
65
63
241
243
240
241
243
240
241
243
240
240
242
239
239
241
238
68
70
67
56
62
53
53
191
92
24
44
18
4
7
2
0
2
0
0
2
0
0
2
0
0
2
0
0
2
0
0
2
0
0
2
0
0
2
0
4
0
6
0
2
0
0
2
0
0
2
0
19
46
18
53
191
92
59
61
58
239
241
238
241
243
240
241
243
240
241
243
240
53
191
92
53
191
92
53
191
92
53
191
92
53
191
92
53
191
92
53
191
92
53
191
92
53
191
92
241
243
240
53
191
92
53
191
92
53
191
92
53
191
92
241
243
240
241
243
240
241
243
240
239
241
238
57
59
57
0
2
0
0
2
0
19
46
18
53
191
92
25
50
17
4
7
2
0
2
0
0
2
0
0
2
0
6
15
1
23
49
22
53
191
92
53
191
92
66
72
63
80
82
79
241
243
240
241
243
240
241
243
240
241
243
240
241
243
240
239
241
238
74
76
73
51
64
53
53
191
92
19
46
18
0
2
0
0
2
0
0
2
0
0
2
0
0
2
0
0
2
0
0
2
0
0
2
0
4
0
6
0
2
0
0
2
0
16
36
15
53
191
92
41
47
38
77
79
76
241
243
240
241
243
240
241
243
240
241
243
240
53
191
92
53
191
92
53
191
92
53
191
92
53
191
92
53
191
92
53
191
92
53
191
92
53
191
92
241
243
240
53
191
92
53
191
92
53
191
92
53
191
92
241
243
240
241
243
240
241
243
240
241
243
240
241
243
240
72
74
72
12
15
11
4
7
2
4
24
3
53
191
92
53
191
92
53
191
92
53
191
92
53
191
92
53
191
92
53
191
92
51
64
53
71
78
68
82
84
81
239
241
238
241
243
240
241
243
240
241
243
240
241
243
240
241
243
240
241
243
240
242
244
241
38
40
37
53
191
92
0
12
5
0
2
0
0
2
0
0
2
0
0
2
0
0
2
0
0
2
0
0
2
0
0
2
0
4
0
6
0
2
0
0
12
5
24
51
23
53
191
92
59
68
63
241
243
240
241
243
240
241
243
240
241
243
240
241
243
240
53
191
92
53
191
92
53
191
92
53
191
92
53
191
92
53
191
92
53
191
92
53
191
92
53
191
92
241
243
240
53
191
92
53
191
92
53
191
92
53
191
92
241
243
240
241
243
240
241
243
240
240
242
239
241
243
240
241
243
240
67
69
66
53
55
52
41
43
40
59
61
58
0
2
0
0
2
0
0
2
0
0
2
0
21
23
20
46
48
45
74
76
73
236
239
235
241
243
240
241
243
240
241
243
240
241
243
240
241
243
240
241
243
240
241
243
240
241
243
240
242
244
241
35
37
35
53
191
92
4
7
2
0
2
0
0
2
0
0
2
0
0
2
0
0
2
0
0
2
0
0
2
0
0
2
0
0
2
0
0
2
0
19
38
11
53
191
92
62
74
64
67
69
66
241
243
240
241
243
240
241
243
240
241
243
240
241
243
240
53
191
92
53
191
92
53
191
92
53
191
92
53
191
92
53
191
92
53
191
92
53
191
92
53
191
92
241
243
240
53
191
92
53
191
92
53
191
92
53
191
92
241
243
240
241
243
240
241
243
240
241
243
240
241
243
240
240
242
239
74
76
73
240
242
239
241
243
240
241
243
240
241
243
240
241
243
240
241
243
240
241
243
240
241
243
240
241
243
240
240
242
239
241
243
240
241
243
240
241
243
240
241
243
240
241
243
240
241
243
240
241
243
240
241
243
240
236
239
235
63
65
63
46
58
48
53
191
92
16
42
15
0
2
0
0
2
0
0
2
0
0
2
0
0
2
0
0
2
0
0
2
0
0
2
0
0
2
0
0
2
0
28
54
26
53
191
92
53
55
52
241
243
240
241
243
240
241
243
240
241
243
240
241
243
240
241
243
240
53
191
92
53
191
92
53
191
92
53
191
92
241
243
240
240
242
239
241
243
240
241
243
240
241
243
240
241
243
240
53
191
92
53
191
92
53
191
92
53
191
92
241
243
240
241
243
240
241
243
240
241
243
240
241
243
240
240
242
239
0
2
0
241
243
240
241
243
240
241
243
240
241
243
240
241
243
240
241
243
240
241
243
240
241
243
240
241
243
240
241
243
240
241
243
240
241
243
240
241
243
240
241
243
240
242
244
241
241
243
240
241
243
240
239
241
238
66
68
65
49
55
47
53
191
92
14
35
13
3
13
0
0
2
0
0
2
0
0
2
0
0
2
0
0
2
0
0
2
0
0
2
0
0
2
0
0
4
7
14
35
13
53
191
92
42
54
44
86
88
85
241
243
240
241
243
240
241
243
240
241
243
240
241
243
240
241
243
240
53
191
92
53
191
92
53
191
92
53
191
92
240
242
239
53
191
92
53
191
92
53
191
92
53
191
92
241
243
240
53
191
92
53
191
92
53
191
92
53
191
92
241
243
240
241
243
240
241
243
240
241
243
240
241
243
240
241
243
240
74
76
73
241
243
240
240
242
239
241
243
240
241
243
240
240
242
239
241
243
240
241
243
240
241
243
240
241
243
240
242
244
241
241
243
240
241
243
240
242
244
241
241
243
240
241
243
240
241
243
240
236
239
235
68
70
67
51
57
48
53
191
92
16
36
15
4
7
2
0
2
0
0
2
0
0
2
0
0
2
0
0
2
0
0
2
0
0
2
0
0
2
0
0
2
0
0
2
0
19
46
18
53
191
92
53
61
56
241
243
240
241
243
240
241
243
240
241
243
240
241
243
240
241
243
240
241
243
240
53
191
92
53
191
92
53
191
92
53
191
92
240
242
239
53
191
92
53
191
92
53
191
92
53
191
92
241
243
240
53
191
92
53
191
92
53
191
92
53
191
92
241
243
240
241
243
240
241
243
240
241
243
240
240
242
239
70
72
69
0
2
0
46
48
45
0
2
0
74
76
73
241
243
240
241
243
240
241
243
240
242
244
241
241
243
240
241
243
240
241
243
240
241
243
240
241
243
240
241
243
240
241
243
240
240
242
239
240
242
239
65
67
64
59
65
56
53
191
92
12
32
9
4
7
2
0
2
0
0
2
0
0
2
0
0
2
0
0
2
0
0
2
0
0
2
0
0
2
0
0
2
0
0
2
0
17
38
17
53
191
92
51
57
48
77
79
76
241
243
240
241
243
240
241
243
240
241
243
240
241
243
240
241
243
240
241
243
240
53
191
92
53
191
92
53
191
92
53
191
92
240
242
239
53
191
92
53
191
92
53
191
92
53
191
92
241
243
240
53
191
92
53
191
92
53
191
92
53
191
92
241
243
240
242
244
241
241
243
240
241
243
240
240
242
239
0
2
0
0
2
0
0
2
0
0
2
0
12
21
17
56
62
53
0
2
0
0
2
0
0
2
0
80
82
79
239
241
238
241
243
240
241
243
240
241
243
240
242
244
241
241
243
240
236
239
235
74
76
73
53
59
50
53
191
92
14
30
14
0
2
0
0
4
7
0
2
0
0
4
7
0
2
0
0
2
0
0
2
0
0
2
0
0
2
0
0
2
0
0
2
0
13
33
11
53
191
92
46
52
43
63
65
63
239
241
238
241
243
240
241
243
240
241
243
240
241
243
240
241
243
240
241
243
240
241
243
240
53
191
92
53
191
92
53
191
92
53
191
92
240
242
239
53
191
92
53
191
92
53
191
92
53
191
92
241
243
240
53
191
92
53
191
92
53
191
92
53
191
92
241
243
240
241
243
240
241
243
240
241
243
240
241
243
240
28
30
28
53
191
92
53
191
92
53
191
92
53
191
92
53
191
92
53
191
92
53
191
92
53
191
92
54
66
56
50
51
49
77
79
76
236
239
235
241
243
240
241
243
240
236
239
235
63
65
63
48
54
46
53
191
92
17
38
17
4
7
2
0
2
0
0
2
0
0
2
0
0
4
7
0
2
0
0
2
0
0
2
0
0
2
0
0
2
0
0
2
0
0
2
0
0
2
0
53
191
92
49
55
47
239
241
238
242
244
241
240
242
239
241
243
240
241
243
240
241
243
240
241
243
240
241
243
240
241
243
240
53
191
92
53
191
92
53
191
92
53
191
92
240
242
239
53
191
92
53
191
92
53
191
92
53
191
92
241
243
240
53
191
92
53
191
92
53
191
92
53
191
92
241
243
240
241
243
240
240
242
239
241
243
240
236
239
235
56
62
53
53
191
92
17
44
17
0
2
0
0
2
0
0
2
0
0
2
0
4
7
2
19
40
19
53
191
92
53
191
92
56
62
53
68
70
67
241
243
240
240
242
239
59
61
58
53
59
50
53
191
92
12
32
9
0
2
0
0
2
0
0
2
0
0
2
0
0
2
0
0
2
0
0
2
0
0
2
0
0
2
0
0
2
0
0
2
0
0
2
0
0
2
0
4
7
2
53
191
92
25
33
29
241
243
240
241
243
240
241
243
240
241
243
240
241
243
240
241
243
240
241
243
240
241
243
240
241
243
240
53
191
92
53
191
92
53
191
92
53
191
92
240
242
239
53
191
92
53
191
92
53
191
92
53
191
92
241
243
240
53
191
92
53
191
92
53
191
92
53
191
92
241
243
240
241
243
240
241
243
240
242
244
241
77
79
76
53
191
92
24
43
17
0
2
0
0
2
0
0
2
0
0
2
0
0
2
0
0
2
0
4
7
2
6
15
1
19
46
18
53
191
92
51
64
53
20
27
24
46
52
43
57
70
59
53
191
92
18
39
18
0
2
0
0
2
0
0
2
0
0
2
0
0
2
0
0
2
0
0
2
0
0
2
0
0
2
0
0
2
0
0
2
0
0
2
0
0
2
0
0
2
0
0
2
0
53
191
92
0
2
0
241
243
240
241
243
240
240
242
239
240
242
239
241
243
240
241
243
240
241
243
240
241
243
240
241
243
240
53
191
92
53
191
92
53
191
92
53
191
92
240
242
239
53
191
92
53
191
92
53
191
92
53
191
92
241
243
240
53
191
92
53
191
92
53
191
92
53
191
92
241
243
240
241
243
240
241
243
240
241
243
240
0
2
0
53
191
92
0
2
0
0
2
0
0
2
0
0
2
0
0
2
0
0
2
0
7
0
0
0
2
0
0
2
0
4
7
2
21
42
21
53
191
92
53
191
92
53
191
92
53
191
92
18
39
18
4
7
2
0
2
0
0
2
0
7
0
0
0
2
0
0
2
0
0
2
0
0
2
0
0
2
0
0
2
0
0
2
0
0
2
0
0
2
0
0
2
0
0
2
0
0
2
0
53
191
92
25
33
29
241
243
240
241
243
240
241
243
240
241
243
240
241
243
240
242
244
241
241
243
240
241
243
240
241
243
240
53
191
92
53
191
92
53
191
92
53
191
92
240
242
239
53
191
92
53
191
92
53
191
92
53
191
92
241
243
240
53
191
92
53
191
92
53
191
92
53
191
92
241
243
240
242
244
241
241
243
240
240
242
239
66
72
63
53
191
92
16
42
15
0
4
7
0
2
0
0
2
0
0
2
0
0
2
0
0
2
0
0
2
0
7
0
0
0
2
0
0
2
0
13
33
11
0
2
0
4
7
2
12
32
9
0
2
0
7
0
0
0
2
0
0
2
0
0
2
0
0
2
0
7
0
0
0
2
0
0
2
0
0
2
0
0
2
0
0
2
0
0
2
0
0
2
0
0
2
0
0
2
0
11
37
8
53
191
92
49
55
47
241
243
240
241
243
240
241
243
240
241
243
240
241
243
240
241
243
240
241
243
240
241
243
240
241
243
240
53
191
92
53
191
92
53
191
92
53
191
92
240
242
239
53
191
92
53
191
92
53
191
92
53
191
92
241
243
240
53
191
92
53
191
92
53
191
92
53
191
92
241
243
240
241
243
240
241
243
240
241
243
240
53
191
92
23
49
22
0
2
0
0
2
0
7
0
0
0
2
0
0
2
0
7
0
0
0
2
0
0
2
0
0
2
0
0
2
0
0
2
0
0
2
0
0
2
0
0
2
0
0
2
0
4
0
6
4
0
6
0
2
0
7
0
0
0
2
0
0
2
0
0
2
0
0
2
0
0
2
0
0
2
0
0
2
0
0
2
0
0
2
0
0
2
0
0
2
0
0
2
0
4
7
2
24
43
17
53
191
92
77
79
76
241
243
240
241
243
240
241
243
240
241
243
240
241
243
240
241
243
240
241
243
240
241
243
240
241
243
240
241
243
240
241
243
240
241
243
240
241
243
240
241
243
240
241
243
240
241
243
240
241
243
240
241
243
240
241
243
240
241
243
240
241
243
240
241
243
240
241
243
240
240
242
239
240
242
239
79
81
78
53
191
92
0
2
0
0
2
0
0
2
0
0
2
0
0
2
0
0
2
0
0
2
0
0
2
0
0
2
0
0
2
0
0
2
0
0
2
0
0
2
0
0
2
0
0
2
0
0
2
0
0
2
0
0
2
0
0
2
0
0
2
0
0
4
7
0
2
0
0
2
0
0
2
0
0
2
0
0
2
0
0
2
0
0
2
0
0
2
0
0
2
0
0
2
0
0
2
0
0
2
0
17
38
17
53
191
92
49
55
47
239
241
238
241
243
240
241
243
240
240
242
239
241
243
240
241
243
240
241
243
240
241
243
240
241
243
240
241
243
240
241
243
240
241
243
240
241
243
240
241
243
240
241
243
240
241
243
240
241
243
240
241
243
240
241
243
240
241
243
240
241
243
240
241
243
240
241
243
240
241
243
240
240
242
239
59
65
56
53
191
92
19
38
11
0
2
0
0
2
0
0
2
0
0
2
0
0
2
0
0
2
0
0
2
0
0
2
0
0
2
0
0
2
0
0
2
0
0
2
0
0
2
0
0
2
0
0
2
0
0
2
0
0
2
0
0
2
0
0
2
0
0
2
0
0
2
0
0
2
0
0
2
0
0
2
0
0
2
0
0
2
0
0
2
0
0
2
0
0
2
0
0
2
0
0
2
0
0
2
0
0
2
0
24
43
17
53
191
92
74
76
73
240
242
239
241
243
240
241
243
240
242
244
241
241
243
240
241
243
240
241
243
240
240
242
239
241
243
240
241
243
240
241
243
240
241
243
240
241
243
240
241
243
240
241
243
240
241
243
240
241
243
240
241
243
240
241
243
240
241
243
240
241
243
240
242
244
241
241
243
240
241
243
240
53
191
92
21
47
20
0
2
0
0
4
7
0
2
0
0
2
0
0
2
0
0
2
0
0
2
0
0
2
0
0
2
0
0
2
0
0
2
0
0
2
0
0
2
0
0
2
0
0
2
0
0
2
0
0
2
0
0
2
0
0
2
0
0
2
0
0
2
0
0
2
0
0
2
0
0
2
0
0
2
0
0
2
0
0
2
0
0
2
0
0
2
0
0
2
0
0
2
0
0
2
0
0
2
0
0
2
0
17
38
17
53
191
92
56
62
53
241
243
240
241
243
240
242
244
241
240
242
239
241
243
240
241
243
240
241
243
240
241
243
240
241
243
240
241
243
240
241
243
240
241
243
240
241
243
240
241
243
240
241
243
240
241
243
240
241
243
240
241
243
240
241
243
240
241
243
240
241
243
240
241
243
240
240
242
239
79
81
78
53
191
92
0
2
0
0
2
0
0
2
0
0
2
0
0
2
0
0
2
0
0
2
0
0
2
0
0
2
0
0
2
0
0
2
0
0
2
0
0
2
0
0
2
0
0
2
0
0
2
0
0
2
0
0
2
0
0
2
0
0
2
0
0
2
0
0
2
0
0
2
0
0
2
0
0
2
0
0
2
0
0
2
0
0
2
0
0
2
0
0
2
0
0
2
0
0
2
0
0
2
0
0
2
0
0
2
0
4
7
2
21
47
20
53
191
92
77
79
76
241
243
240
241
243
240
241
243
240
241
243
240
241
243
240
241
243
240
241
243
240
241
243
240
241
243
240
241
243
240
241
243
240
241
243
240
241
243
240
241
243
240
241
243
240
241
243
240
241
243
240
241
243
240
241
243
240
241
243
240
241
243
240
241
243
240
0
2
0
53
191
92
0
2
0
4
0
6
0
2
0
0
2
0
0
2
0
0
2
0
0
2
0
0
2
0
0
2
0
4
0
6
0
2
0
0
2
0
0
2
0
0
2
0
0
2
0
0
2
0
0
2
0
0
2
0
0
2
0
0
2
0
0
2
0
0
2
0
0
2
0
0
2
0
0
2
0
0
2
0
0
2
0
0
2
0
0
2
0
0
2
0
0
2
0
0
2
0
0
2
0
0
2
0
4
0
6
0
2
0
13
33
11
53
191
92
48
54
46
239
241
238
241
243
240
241
243
240
240
242
239
240
242
239
241
243
240
241
243
240
241
243
240
241
243
240
241
243
240
242
244
241
241
243
240
241
243
240
241
243
240
241
243
240
241
243
240
241
243
240
241
243
240
241
243
240
241
243
240
241
243
240
241
243
240
48
54
46
53
191
92
16
42
15
0
2
0
0
2
0
0
2
0
0
2
0
0
2
0
0
2
0
0
2
0
0
2
0
0
2
0
0
2
0
0
2
0
0
2
0
0
2
0
0
2
0
0
2
0
0
2
0
0
2
0
0
2
0
0
2
0
0
2
0
0
2
0
0
2
0
0
2
0
0
2
0
0
2
0
0
2
0
0
2
0
0
2
0
0
2
0
0
2
0
0
2
0
0
2
0
0
2
0
0
4
7
0
2
0
3
13
0
20
40
13
53
191
92
55
57
54
239
241
238
241
243
240
241
243
240
241
243
240
241
243
240
241
243
240
241
243
240
241
243
240
241
243
240
240
242
239
241
243
240
241
243
240
241
243
240
241
243
240
241
243
240
241
243
240
241
243
240
241
243
240
241
243
240
241
243
240
77
79
76
53
191
92
19
40
19
0
2
0
0
2
0
0
2
0
0
2
0
0
2
0
0
2
0
0
2
0
0
2
0
0
2
0
0
2
0
0
2
0
0
2
0
0
2
0
0
2
0
0
2
0
0
2
0
0
2
0
0
2
0
0
2
0
0
2
0
0
2
0
0
2
0
0
2
0
0
2
0
0
2
0
0
2
0
0
2
0
0
2
0
0
2
0
0
2
0
0
2
0
0
2
0
0
2
0
0
2
0
0
4
7
7
0
0
0
2
0
0
2
0
24
45
24
53
191
92
59
61
58
241
243
240
241
243
240
241
243
240
242
244
241
241
243
240
241
243
240
241
243
240
241
243
240
241
243
240
241
243
240
241
243
240
241
243
240
241
243
240
241
243
240
241
243
240
241
243
240
241
243
240
241
243
240
241
243
240
53
191
92
28
54
26
0
2
0
0
2
0
0
2
0
0
2
0
0
2
0
0
2
0
0
2
0
0
2
0
0
2
0
0
2
0
0
2
0
0
2
0
0
2
0
0
2
0
0
2
0
0
2
0
0
2
0
0
2
0
0
2
0
0
2
0
0
2
0
0
2
0
0
2
0
0
2
0
0
2
0
0
2
0
0
2
0
0
2
0
0
2
0
0
2
0
0
2
0
0
2
0
0
2
0
0
2
0
0
2
0
0
2
0
7
0
0
4
0
6
0
2
0
0
2
0
19
40
19
53
191
92
59
61
58
241
243
240
241
243
240
241
243
240
241
243
240
240
242
239
241
243
240
241
243
240
241
243
240
241
243
240
241
243
240
241
243
240
241
243
240
241
243
240
241
243
240
241
243
240
241
243
240
241
243
240
74
82
78
53
191
92
19
46
18
0
2
0
0
2
0
0
2
0
7
0
0
0
2
0
0
2
0
0
2
0
0
2
0
0
2
0
0
2
0
0
2
0
0
2
0
0
2
0
0
2
0
0
2
0
0
2
0
0
2
0
0
2
0
0
2
0
0
2
0
0
2
0
0
2
0
0
2
0
0
2
0
0
2
0
0
2
0
0
2
0
0
2
0
0
2
0
0
2
0
0
2
0
0
2
0
0
2
0
0
2
0
0
2
0
0
2
0
7
0
0
4
0
6
0
4
7
0
2
0
4
7
2
16
36
15
53
191
92
68
70
67
239
241
238
241
243
240
241
243
240
240
242
239
241
243
240
241
243
240
241
243
240
241
243
240
241
243
240
241
243
240
241
243
240
241
243
240
241
243
240
241
243
240
241
243
240
241
243
240
53
191
92
28
54
26
0
2
0
7
0
0
0
2
0
0
2
0
0
2
0
0
2
0
0
2
0
0
2
0
0
2
0
0
2
0
0
2
0
0
2
0
0
2
0
0
2
0
0
2
0
0
2
0
0
2
0
0
2
0
0
2
0
0
2
0
0
2
0
0
2
0
0
2
0
0
2
0
0
2
0
0
2
0
0
2
0
0
2
0
0
2
0
0
2
0
0
2
0
0
2
0
0
2
0
0
2
0
0
2
0
0
2
0
0
2
0
0
2
0
0
2
0
0
2
0
0
2
0
0
2
0
4
7
2
16
36
15
53
191
92
59
61
58
241
243
240
241
243
240
241
243
240
241
243
240
241
243
240
241
243
240
241
243
240
241
243
240
242
244
241
241
243
240
241
243
240
241
243
240
241
243
240
239
241
238
55
57
54
53
191
92
17
38
17
0
2
0
4
0
6
0
2
0
0
2
0
0
2
0
0
2
0
0
2
0
0
2
0
0
2
0
0
2
0
0
2
0
0
2
0
0
2
0
0
2
0
0
2
0
0
2
0
0
2
0
0
2
0
0
2
0
0
2
0
0
2
0
0
2
0
0
2
0
0
2
0
0
2
0
0
2
0
0
2
0
0
2
0
0
2
0
0
2
0
0
2
0
0
2
0
0
2
0
0
2
0
0
2
0
0
2
0
0
2
0
0
2
0
7
0
0
0
4
7
0
2
0
0
2
0
0
2
0
4
7
2
19
40
19
53
191
92
63
65
63
236
239
235
241
243
240
241
243
240
241
243
240
241
243
240
241
243
240
241
243
240
241
243
240
241
243
240
241
243
240
241
243
240
242
244
241
240
242
239
53
191
92
19
46
18
0
2
0
0
2
0
0
2
0
0
2
0
0
2
0
0
2
0
0
2
0
0
2
0
0
2
0
0
2
0
0
2
0
0
2
0
0
2
0
0
2
0
0
2
0
0
2
0
0
2
0
0
2
0
0
2
0
0
2
0
0
2
0
0
2
0
0
2
0
0
2
0
0
2
0
0
2
0
0
2
0
0
2
0
0
2
0
0
2
0
0
2
0
0
2
0
0
2
0
0
2
0
0
2
0
0
2
0
0
2
0
0
2
0
0
2
0
0
2
0
0
2
0
0
2
0
0
2
0
0
2
0
0
2
0
0
2
0
16
36
15
53
191
92
50
51
49
241
243
240
241
243
240
241
243
240
240
242
239
241
243
240
242
244
241
241
243
240
241
243
240
241
243
240
240
242
239
241
243
240
82
84
81
53
191
92
3
20
6
0
2
0
0
2
0
0
2
0
0
2
0
0
2
0
0
2
0
0
2
0
0
2
0
0
2
0
0
2
0
0
2
0
0
2
0
0
2
0
0
2
0
0
2
0
0
2
0
0
2
0
0
2
0
0
2
0
0
2
0
0
2
0
0
2
0
0
2
0
0
2
0
0
2
0
0
2
0
0
2
0
0
2
0
0
2
0
0
2
0
0
2
0
0
2
0
0
2
0
0
2
0
0
2
0
0
2
0
0
2
0
0
2
0
0
2
0
0
2
0
0
2
0
0
2
0
7
0
0
0
2
0
0
2
0
0
2
0
4
7
2
18
39
18
53
191
92
68
70
67
239
241
238
241
243
240
241
243
240
241
243
240
241
243
240
241
243
240
240
242
239
241
243
240
241
243
240
240
242
239
59
65
56
53
191
92
19
38
11
0
2
0
0
2
0
7
0
0
0
2
0
0
2
0
0
2
0
0
2
0
0
2
0
0
2
0
0
2
0
0
2
0
0
2
0
0
2
0
0
2
0
0
2
0
0
2
0
0
2
0
0
2
0
0
2
0
0
2
0
0
2
0
0
2
0
0
2
0
0
2
0
0
2
0
0
2
0
0
2
0
0
2
0
0
2
0
0
2
0
0
2
0
0
2
0
0
2
0
0
2
0
0
2
0
0
2
0
0
2
0
0
2
0
0
2
0
0
2
0
0
2
0
0
2
0
0
2
0
0
2
0
0
2
0
0
2
0
0
2
0
0
12
5
20
34
13
53
191
92
59
61
58
241
243
240
241
243
240
241
243
240
241
243
240
241
243
240
241
243
240
241
243
240
240
242
239
68
70
67
53
191
92
24
51
23
4
7
2
0
2
0
0
2
0
0
2
0
0
2
0
0
2
0
0
2
0
0
2
0
0
2
0
0
2
0
0
2
0
0
2
0
0
2
0
0
2
0
0
2
0
0
2
0
0
2
0
0
2
0
0
2
0
0
2
0
0
2
0
0
2
0
0
2
0
0
2
0
0
2
0
0
2
0
0
2
0
0
2
0
0
2
0
0
2
0
0
2
0
0
2
0
0
2
0
0
2
0
0
2
0
0
2
0
0
2
0
0
2
0
0
4
7
0
2
0
0
2
0
0
2
0
0
2
0
0
2
0
0
4
7
0
2
0
0
2
0
0
2
0
0
2
0
0
2
0
16
36
15
53
191
92
68
70
67
239
241
238
241
243
240
241
243
240
241
243
240
241
243
240
241
243
240
236
239
235
36
43
40
53
191
92
0
2
0
0
2
0
0
2
0
0
2
0
0
2
0
0
2
0
0
2
0
0
2
0
0
2
0
0
2
0
0
2
0
0
2
0
0
2
0
0
2
0
0
2
0
0
2
0
0
2
0
0
2
0
0
2
0
0
2
0
0
2
0
0
2
0
0
2
0
0
2
0
0
2
0
0
2
0
0
2
0
0
2
0
0
2
0
0
2
0
0
2
0
0
2
0
0
2
0
0
2
0
0
2
0
0
2
0
0
2
0
0
2
0
0
2
0
0
2
0
7
0
0
0
2
0
0
2
0
0
2
0
0
2
0
0
2
0
0
2
0
0
2
0
0
2
0
0
2
0
0
4
7
0
2
0
20
34
13
53
191
92
59
61
58
240
242
239
241
243
240
241
243
240
241
243
240
240
242
239
53
55
52
36
42
33
53
191
92
19
38
11
0
2
0
0
2
0
0
2
0
0
2
0
0
4
7
0
2
0
0
2
0
0
2
0
0
2
0
0
2
0
0
2
0
0
2
0
0
2
0
0
2
0
0
2
0
0
2
0
0
2
0
0
2
0
0
2
0
0
2
0
0
2
0
0
2
0
0
2
0
0
2
0
0
2
0
0
2
0
0
2
0
0
2
0
0
2
0
0
2
0
0
2
0
0
2
0
0
2
0
0
2
0
0
2
0
0
2
0
0
2
0
0
2
0
0
2
0
0
2
0
4
0
6
0
2
0
0
2
0
0
2
0
0
2
0
0
2
0
0
2
0
0
2
0
0
2
0
4
0
6
0
2
0
0
2
0
19
40
19
53
191
92
43
49
41
0
2
0
0
2
0
0
2
0
20
27
24
36
42
33
53
191
92
17
38
17
0
2
0
0
2
0
0
2
0
0
2
0
0
2
0
0
2
0
0
2
0
0
2
0
4
0
6
0
2
0
0
2
0
0
2
0
0
2
0
0
2
0
0
2
0
0
2
0
0
2
0
0
2
0
0
2
0
0
2
0
0
2
0
0
2
0
0
2
0
0
2
0
0
2
0
0
2
0
0
2
0
0
2
0
0
2
0
0
2
0
0
2
0
0
2
0
0
2
0
0
2
0
0
2
0
0
2
0
0
2
0
0
2
0
0
2
0
0
2
0
0
2
0
0
2
0
0
2
0
0
2
0
0
2
0
0
2
0
0
2
0
0
2
0
7
0
0
0
2
0
0
2
0
0
2
0
0
2
0
4
7
2
20
34
13
53
191
92
53
191
92
53
191
92
53
191
92
53
191
92
53
191
92
17
38
17
0
2
0
0
2
0
0
2
0
0
2
0
0
2
0
0
2
0
0
2
0
0
2
0
0
2
0
0
2
0
0
2
0
0
2
0
0
2
0
0
2
0
0
2
0
0
2
0
0
2
0
0
2
0
0
2
0
0
2
0
0
2
0
0
2
0
0
2
0
0
2
0
0
2
0
0
2
0
0
2
0
0
2
0
0
2
0
0
2
0
0
2
0
0
2
0
0
2
0
0
2
0
0
2
0
0
2
0
0
2
0
0
2
0
0
2
0
0
2
0
0
2
0
0
2
0
0
2
0
0
2
0
0
2
0
0
2
0
0
2
0
0
2
0
0
2
0
0
2
0
0
2
0
0
4
7
0
4
7
0
2
0
0
2
0
4
7
2
9
27
9
0
2
0
0
2
0
0
2
0
0
2
0
14
35
13
4
7
2
0
2
0
0
2
0
0
2
0
0
2
0
0
2
0
0
2
0
0
2
0
0
2
0
0
2
0
0
2
0
0
2
0
0
2
0
0
2
0
0
2
0
0
2
0
0
2
0
0
2
0
0
2
0
0
2
0
0
2
0
0
2
0
0
2
0
0
2
0
0
2
0
0
2
0
0
2
0
0
2
0
0
2
0
0
2
0
0
2
0
0
2
0
0
2
0
0
2
0
0
2
0
0
2
0
0
2
0
0
2
0
0
2
0
0
2
0
0
2
0
0
2
0
0
2
0
0
2
0
0
2
0
0
2
0
0
2
0
0
2
0
0
2
0
0
2
0
0
2
0
0
2
0
0
2
0
0
2
0
0
2
0
0
2
0
0
2
0
0
2
0
0
2
0
0
2
0
0
2
0
0
2
0
0
2
0
0
2
0
0
2
0
0
2
0
0
2
0
0
2
0
0
2
0
0
2
0
0
2
0
0
2
0
0
2
0
0
2
0
0
2
0
0
2
0
0
2
0
0
2
0
0
2
0
0
2
0
0
2
0
0
2
0
0
2
0
0
2
0
0
2
0
0
2
0
0
2
0
0
2
0
0
2
0
0
2
0
0
2
0
0
2
0
0
2
0
0
2
0
0
2
0
0
2
0
0
2
0
0
2
0
0
2
0
0
2
0
0
2
0
0
2
0
0
2
0
0
2
0
0
2
0
0
2
0
0
2
0
0
2
0
0
2
0
0
2
0
0
2
0
0
2
0
0
2
0
0
2
0
0
2
0
0
2
0
0
2
0
0
2
0
0
2
0
0
2
0
0
2
0
0
2
0
0
2
0
0
2
0
0
2
0
0
2
0
0
2
0
0
2
0
0
2
0
0
2
0
0
2
0
0
2
0
0
2
0
0
2
0
0
2
0
0
2
0
0
2
0
0
2
0
0
2
0
0
2
0
0
2
0
0
2
0
0
2
0
0
2
0
0
2
0
0
2
0
0
2
0
0
2
0
0
2
0
0
2
0
0
2
0
0
2
0
0
2
0
0
2
0
0
2
0
0
2
0
0
2
0
0
2
0
0
2
0
0
2
0
0
2
0
0
2
0
0
2
0
0
2
0
0
2
0
0
2
0
0
2
0
0
2
0
0
2
0
0
2
0
0
2
0
0
2
0
0
2
0
0
2
0
0
2
0
0
2
0
0
2
0
0
2
0
0
2
0
0
2
0
0
2
0
0
2
0
0
2
0
0
2
0
0
2
0
0
2
0
0
2
0
0
2
0
0
2
0
0
2
0
0
2
0
0
2
0
0
2
0
0
2
0
0
2
0
0
2
0
0
2
0
0
2
0
0
2
0
0
2
0
0
2
0
0
2
0
0
2
0
0
2
0
0
2
0
0
2
0
0
2
0
0
2
0
0
2
0
0
2
0
0
2
0
0
2
0
0
2
0
0
2
0
0
2
0
0
2
0
0
2
0
0
2
0
0
2
0
0
2
0
0
2
0
0
2
0
0
2
0
0
2
0
0
2
0
0
2
0
0
2
0
0
2
0
0
2
0
0
2
0
0
2
0
0
2
0
0
2
0
0
2
0
0
2
0
0
2
0
0
2
0
0
2
0
0
2
0
0
2
0
0
2
0
0
2
0
0
2
0
0
2
0
0
2
0
0
2
0
0
2
0
0
2
0
0
2
0
0
2
0
0
2
0
0
2
0
0
2
0
0
2
0
0
2
0
0
2
0
0
2
0
0
2
0
0
2
0
0
2
0
0
2
0
0
2
0
0
2
0
0
2
0
0
2
0
0
2
0
0
2
0
0
2
0
0
2
0
0
2
0
0
2
0
0
2
0
0
2
0
0
2
0
0
2
0
0
2
0
0
2
0
0
2
0
0
2
0
0
2
0
0
2
0
0
2
0
0
2
0
0
2
0
0
2
0
0
2
0
0
2
0
0
2
0
0
2
0
0
2
0
0
2
0
0
2
0
0
2
0
0
2
0
0
2
0
0
2
0
0
2
0
0
2
0
0
2
0
0
2
0
0
2
0
0
2
0
0
2
0
0
2
0
0
2
0
0
2
0
0
2
0
0
2
0
0
2
0
0
2
0
0
2
0
0
2
0
0
2
0
0
2
0
0
2
0
0
2
0
0
2
0
0
2
0
0
2
0
0
2
0
0
2
0
0
2
0
0
2
0
0
2
0
0
2
0
0
2
0
0
2
0
0
2
0
0
2
0
0
2
0
0
2
0
0
2
0
0
2
0
0
2
0
0
2
0
0
2
0
0
2
0
0
2
0
0
2
0
0
2
0
0
2
0
0
2
0
0
2
0
0
2
0
0
2
0
0
2
0
0
2
0
0
2
0
0
2
0
0
2
0
0
2
0
0
2
0
0
2
0
0
2
0
0
2
0
0
2
0
0
2
0
0
2
0
0
2
0
0
2
0
0
2
0
0
2
0
0
2
0
0
2
0
0
2
0
0
2
0
0
2
0
0
2
0
0
2
0
0
2
0
0
2
0
0
2
0
0
2
0
0
2
0
0
2
0
0
2
0
0
2
0
0
2
0
0
2
0
0
2
0
0
2
0
0
2
0
0
2
0
0
2
0
0
2
0
0
2
0
0
2
0
0
2
0
0
2
0
0
2
0
0
2
0
0
2
0
0
2
0
0
2
0
0
2
0
0
2
0
0
2
0
0
2
0
0
2
0
0
2
0
0
2
0
0
2
0
0
2
0
0
2
0
0
2
0
0
2
0
0
2
0
0
2
0
0
2
0
0
2
0
0
2
0
